<svg xmlns="http://www.w3.org/2000/svg" viewBox="0 0 22.38 22.39"><defs><style>.cls-1{fill:#939598;}</style></defs><g id="Layer_2" data-name="Layer 2"><g id="Layer_1-2" data-name="Layer 1"><path class="cls-1" d="M0,11.2V6.51A6.62,6.62,0,0,1,5.37.12,8.05,8.05,0,0,1,6.67,0c3,0,6,0,9,0a6.65,6.65,0,0,1,6.56,5.23,6.78,6.78,0,0,1,.15,1.42c0,3,0,6.06,0,9.09a6.65,6.65,0,0,1-5.69,6.58,8.4,8.4,0,0,1-1,.07h-9A6.62,6.62,0,0,1,.16,17.22,5.31,5.31,0,0,1,0,16Zm1,0H1C1,12.79,1,14.41,1,16a5.24,5.24,0,0,0,1.49,3.57,5.53,5.53,0,0,0,4.21,1.77h8.72c.31,0,.61,0,.92,0a5.58,5.58,0,0,0,5-5.54q0-4.59,0-9.18a5.75,5.75,0,0,0-.14-1.24A5.58,5.58,0,0,0,15.72,1c-3,0-6.06,0-9.09,0a5.73,5.73,0,0,0-.82.05A5.55,5.55,0,0,0,1,6.54Z"/><path class="cls-1" d="M5.59,11.19a5.6,5.6,0,1,1,5.59,5.59A5.61,5.61,0,0,1,5.59,11.19Zm1,0a4.57,4.57,0,1,0,4.54-4.58A4.53,4.53,0,0,0,6.62,11.2Z"/><path class="cls-1" d="M18.3,5.09a1,1,0,0,1-1,1,1,1,0,1,1,1-1Z"/></g></g></svg>