<svg xmlns="http://www.w3.org/2000/svg" viewBox="0 0 120.22 46.06"><defs><style>.cls-1{fill:#fff;}</style></defs><g id="Layer_2" data-name="Layer 2"><g id="Layer_1-2" data-name="Layer 1"><path class="cls-1" d="M0,7.78H18.59v5.46H12.31V46.06h-6V13.24H0Z"/><path class="cls-1" d="M27.23,46.06h-6V7.78h6v16.4h6.84V7.78H40.2V46.06H34.07V29.65H27.23Z"/><path class="cls-1" d="M50.58,23.91h8.26v5.47H50.58V40.59H61v5.47H44.57V7.78H61v5.46H50.58Z"/><path class="cls-1" d="M80.52,39,85.11,7.78h5.53L84.73,46.06h-9L69.86,7.78h6.07Z"/><path class="cls-1" d="M93.43,7.78h6V46.06h-6Z"/><path class="cls-1" d="M109.83,23.91h8.26v5.47h-8.26V40.59h10.39v5.47H103.81V7.78h16.41v5.46H109.83Z"/><circle class="cls-1" cx="93.06" cy="2.41" r="2.41"/><circle class="cls-1" cx="99.81" cy="2.41" r="2.41"/></g></g></svg>