<svg xmlns="http://www.w3.org/2000/svg" viewBox="0 0 184.23 97.89"><defs><style>.cls-1{fill:#525252;}.cls-2{fill:#fff;}</style></defs><g id="Layer_2" data-name="Layer 2"><g id="Layer_1-2" data-name="Layer 1"><path class="cls-1" d="M15.29,85.91l-3.07,9.38H9.89L7.82,88.94,5.69,95.29H3.38L.3,85.91H2.55l2.11,6.6,2.21-6.6h2L11,92.56l2.18-6.65Z"/><path class="cls-1" d="M16.22,85.91a1.19,1.19,0,0,1,1.3-1.16,1.17,1.17,0,0,1,1.3,1.12,1.2,1.2,0,0,1-1.3,1.21A1.19,1.19,0,0,1,16.22,85.91Zm.25,2.17h2.09v7.21H16.47Z"/><path class="cls-1" d="M19.81,94.62l.7-1.5a4.87,4.87,0,0,0,2.5.7c1,0,1.33-.26,1.33-.66,0-1.18-4.36,0-4.36-2.85C20,88.94,21.22,88,23.32,88a5.93,5.93,0,0,1,2.77.63l-.69,1.48a4.15,4.15,0,0,0-2.08-.53c-.94,0-1.34.29-1.34.67,0,1.23,4.35,0,4.35,2.88,0,1.34-1.24,2.29-3.4,2.29A6.2,6.2,0,0,1,19.81,94.62Z"/><path class="cls-1" d="M35,91.17v4.12H32.9v-3.8c0-1.17-.54-1.7-1.46-1.7s-1.73.61-1.73,1.94v3.56H27.62V85.35h2.09v3.49A3.12,3.12,0,0,1,32,88C33.7,88,35,89,35,91.17Z"/><path class="cls-1" d="M36.36,94.09a1.3,1.3,0,0,1,2.6,0,1.3,1.3,0,1,1-2.6,0Z"/><path class="cls-1" d="M58.49,85.91l-3.07,9.38H53.09L51,88.94,48.9,95.29H46.58L43.5,85.91h2.25l2.12,6.6,2.21-6.6h2l2.14,6.65,2.19-6.65Z"/><path class="cls-1" d="M66,92.28H60.58a1.92,1.92,0,0,0,2.06,1.45,2.46,2.46,0,0,0,1.81-.7l1.11,1.2a3.75,3.75,0,0,1-3,1.17c-2.49,0-4.12-1.57-4.12-3.71A3.67,3.67,0,0,1,62.32,88a3.57,3.57,0,0,1,3.75,3.74C66.07,91.88,66,92.1,66,92.28Zm-5.48-1.22H64.1a1.8,1.8,0,0,0-3.55,0Z"/><path class="cls-1" d="M83.43,91.17v4.12H81.34v-3.8c0-1.17-.52-1.7-1.37-1.7s-1.59.6-1.59,1.89v3.61H76.29v-3.8c0-1.17-.5-1.7-1.37-1.7s-1.58.6-1.58,1.89v3.61H71.25V88.08h2v.84A2.9,2.9,0,0,1,75.51,88a2.68,2.68,0,0,1,2.37,1.18A3.25,3.25,0,0,1,80.48,88C82.2,88,83.43,89,83.43,91.17Z"/><path class="cls-1" d="M91.68,91.18v4.11h-2v-.9a2.37,2.37,0,0,1-2.2,1c-1.68,0-2.69-.94-2.69-2.18s.9-2.16,3.1-2.16h1.66c0-.9-.54-1.42-1.66-1.42a3.43,3.43,0,0,0-2.08.67l-.75-1.46A5.57,5.57,0,0,1,88.21,88C90.4,88,91.68,89,91.68,91.18ZM89.59,93v-.74H88.15c-1,0-1.28.36-1.28.84s.44.87,1.18.87A1.55,1.55,0,0,0,89.59,93Z"/><path class="cls-1" d="M96.66,92.47l-1,1v1.83H93.56V85.35h2.09V91l3.06-2.9h2.49l-3,3.06,3.27,4.15H98.94Z"/><path class="cls-1" d="M109.11,92.28h-5.45a1.93,1.93,0,0,0,2.07,1.45,2.42,2.42,0,0,0,1.8-.7l1.12,1.2a3.77,3.77,0,0,1-3,1.17c-2.49,0-4.11-1.57-4.11-3.71A3.67,3.67,0,0,1,105.4,88a3.57,3.57,0,0,1,3.76,3.74C109.16,91.88,109.13,92.1,109.11,92.28Zm-5.47-1.22h3.55a1.71,1.71,0,0,0-1.77-1.5A1.7,1.7,0,0,0,103.64,91.06Z"/><path class="cls-1" d="M114.08,85.91a1.19,1.19,0,0,1,1.3-1.16,1.17,1.17,0,0,1,1.3,1.12,1.31,1.31,0,0,1-2.6,0Zm.26,2.17h2.09v7.21h-2.09Z"/><path class="cls-1" d="M123,94.94a3,3,0,0,1-1.7.46,2.38,2.38,0,0,1-2.7-2.59v-3h-1.11v-1.6h1.11V86.49h2.09v1.76h1.8v1.6h-1.8v2.94a.85.85,0,0,0,.9.95,1.4,1.4,0,0,0,.84-.27Z"/><path class="cls-1" d="M135.35,91.17v4.12h-2.09v-3.8c0-1.17-.53-1.7-1.46-1.7s-1.73.61-1.73,1.94v3.56H128V85.35h2.09v3.49a3.16,3.16,0,0,1,2.29-.86C134.07,88,135.35,89,135.35,91.17Z"/><path class="cls-1" d="M143.62,91.18v4.11h-2v-.9a2.37,2.37,0,0,1-2.2,1c-1.69,0-2.69-.94-2.69-2.18s.9-2.16,3.09-2.16h1.67c0-.9-.54-1.42-1.67-1.42a3.42,3.42,0,0,0-2.07.67L137,88.85a5.55,5.55,0,0,1,3.11-.87C142.34,88,143.62,89,143.62,91.18ZM141.53,93v-.74h-1.44c-1,0-1.28.36-1.28.84s.44.87,1.17.87A1.56,1.56,0,0,0,141.53,93Z"/><path class="cls-1" d="M153.35,91.69a3.5,3.5,0,0,1-3.59,3.71,2.8,2.8,0,0,1-2.17-.87v3.36H145.5V88.08h2v.84a2.8,2.8,0,0,1,2.26-.94A3.49,3.49,0,0,1,153.35,91.69Zm-2.11,0a1.84,1.84,0,1,0-1.84,2A1.82,1.82,0,0,0,151.24,91.69Z"/><path class="cls-1" d="M162.59,91.69A3.5,3.5,0,0,1,159,95.4a2.81,2.81,0,0,1-2.17-.87v3.36h-2.09V88.08h2v.84A2.8,2.8,0,0,1,159,88,3.49,3.49,0,0,1,162.59,91.69Zm-2.11,0a1.84,1.84,0,1,0-1.84,2A1.82,1.82,0,0,0,160.48,91.69Z"/><path class="cls-1" d="M171,92.28h-5.45a1.92,1.92,0,0,0,2.06,1.45,2.43,2.43,0,0,0,1.81-.7l1.11,1.2a3.75,3.75,0,0,1-3,1.17c-2.49,0-4.11-1.57-4.11-3.71A3.67,3.67,0,0,1,167.29,88,3.57,3.57,0,0,1,171,91.72C171,91.88,171,92.1,171,92.28Zm-5.48-1.22h3.55a1.8,1.8,0,0,0-3.55,0Z"/><path class="cls-1" d="M179.8,91.17v4.12h-2.09v-3.8c0-1.17-.53-1.7-1.46-1.7s-1.73.61-1.73,1.94v3.56h-2.08V88.08h2v.85a3.15,3.15,0,0,1,2.39-1C178.52,88,179.8,89,179.8,91.17Z"/><path class="cls-1" d="M181.18,94.09a1.3,1.3,0,0,1,2.6,0,1.3,1.3,0,1,1-2.6,0Z"/><path class="cls-2" d="M0,11.92H28.49V20.3H18.86V70.58H9.64V20.3H0Z"/><path class="cls-2" d="M41.73,70.58H32.52V11.92h9.21V37.06H52.21V11.92H61.6V70.58H52.21V45.44H41.73Z"/><path class="cls-2" d="M77.52,36.64H90.17V45H77.52V62.2H93.44v8.38H68.3V11.92H93.44V20.3H77.52Z"/><path class="cls-2" d="M123.39,59.77l7-47.85h8.47l-9.05,58.66H116.1l-9-58.66h9.3Z"/><path class="cls-2" d="M143.17,11.92h9.22V70.58h-9.22Z"/><path class="cls-2" d="M168.31,36.64H181V45H168.31V62.2h15.92v8.38H159.09V11.92h25.14V20.3H168.31Z"/><circle class="cls-2" cx="142.61" cy="3.69" r="3.69"/><circle class="cls-2" cx="152.95" cy="3.69" r="3.69"/></g></g></svg>