<svg xmlns="http://www.w3.org/2000/svg" viewBox="0 0 903.65 383.21"><defs><style>.cls-1{fill:#fff;}.cls-2{fill:none;stroke:#fff;stroke-miterlimit:10;}</style></defs><g id="Layer_2" data-name="Layer 2"><g id="Layer_1-2" data-name="Layer 1"><path class="cls-1" d="M124,133.19H64.35L53.81,160.55H0l68.61-157h52l68.62,157H134.54ZM109.42,95.07,94.18,55.61,78.93,95.07Z"/><path class="cls-1" d="M361.46,117.27c0,27.36-23.1,43.28-66.37,43.28H206.74V3.59H290.6c43.28,0,63.46,17.26,63.46,41,0,14.58-7.4,26.68-21.75,33.86C350.7,85.21,361.46,98.66,361.46,117.27ZM258.76,40.59V63.91h24.67c11.88,0,17.26-4,17.26-11.66s-5.38-11.66-17.26-11.66Zm49.33,70.63c0-8.07-5.83-12.34-17.49-12.34H258.76v24.67H290.6C302.26,123.55,308.09,119.29,308.09,111.22Z"/><path class="cls-1" d="M382.76,82.07C382.76,34.53,420.21,0,471.33,0S559.9,34.53,559.9,82.07s-37.44,82.06-88.57,82.06S382.76,129.6,382.76,82.07Zm123.78,0c0-24.44-15.7-39.24-35.21-39.24s-35.2,14.8-35.2,39.24,15.7,39.24,35.2,39.24S506.54,106.51,506.54,82.07Z"/><path class="cls-1" d="M586.81,89.92V3.59h52.92V88.35c0,24,9.2,33,24,33s24-9,24-33V3.59h52V89.92c0,47.08-28.25,74.21-76.46,74.21S586.81,137,586.81,89.92Z"/><path class="cls-1" d="M804.77,44.62h-46v-41H903.65v41h-46V160.55H804.77Z"/><path class="cls-2" d="M15.7,308.49V222.17H68.61v84.75c0,24,9.2,33,24,33s24-9,24-33V222.17h52v86.32c0,47.09-28.25,74.22-76.46,74.22S15.7,355.58,15.7,308.49Z"/><path class="cls-2" d="M191.94,366.57,209,328c14.8,8.75,34.54,14.35,51.8,14.35,15,0,20.41-3.14,20.41-8.52,0-19.73-86.78-3.81-86.78-62.33,0-29.15,24.44-52.92,73.1-52.92,21.07,0,42.82,4.48,59.19,13.68L310.78,270.6c-15.47-7.85-30-11.66-43.72-11.66-15.47,0-20.41,4.48-20.41,9.86,0,18.84,86.78,3.14,86.78,61,0,28.71-24.44,52.92-73.1,52.92C234.1,382.71,207.64,376.21,191.94,366.57Z"/></g></g></svg>