<svg xmlns="http://www.w3.org/2000/svg" viewBox="0 0 1960.99 215.32"><defs><style>.cls-1{fill:none;stroke:#fff;stroke-miterlimit:10;stroke-width:1.18px;}</style></defs><g id="Layer_2" data-name="Layer 2"><g id="Layer_1-2" data-name="Layer 1"><path class="cls-1" d="M132.51,211.18,92.58,153.51H48.51v57.67H.59V4.14H90.21c55.31,0,89.92,28.69,89.92,75.13,0,31.05-15.68,53.83-42.59,65.36L184,211.18Zm-45-168h-39v72.17h39c29.28,0,44.07-13.6,44.07-36.08C131.62,56.49,116.83,43.18,87.55,43.18Z"/><path class="cls-1" d="M366.17,166.82H270L251.7,211.18H202.6l92.29-207h47.32l92.58,207H384.51Zm-15.09-36.38L318.25,51.17l-32.83,79.27Z"/><path class="cls-1" d="M658.1,4.14v207H618.76L515.54,85.48v125.7H468.21V4.14h39.64l102.93,125.7V4.14Z"/><path class="cls-1" d="M706,107.66C706,45.25,753.93.59,818.41.59c35.79,0,65.67,13,85.19,36.68L872.84,65.66c-13.91-16-31.36-24.25-52.06-24.25-38.75,0-66.25,27.21-66.25,66.25s27.5,66.26,66.25,66.26c20.7,0,38.15-8.29,52.06-24.55l30.76,28.39c-19.52,24-49.4,37-85.48,37C753.93,214.73,706,170.07,706,107.66Z"/><path class="cls-1" d="M1137.55,4.14v207h-47.91V126.3H995.58v84.88H947.67V4.14h47.91V85.77h94.06V4.14Z"/><path class="cls-1" d="M1358.8,172.73v38.45H1198.49V4.14H1355V42.59H1246.11v45h96.12v37.27h-96.12v47.91Z"/><path class="cls-1" d="M1408.78,4.14h47.92v207h-47.92Z"/><path class="cls-1" d="M1649.54,211.18l-39.93-57.67h-44.07v57.67h-47.91V4.14h89.62c55.31,0,89.91,28.69,89.91,75.13,0,31.05-15.67,53.83-42.59,65.36L1701,211.18Zm-45-168h-39v72.17h39c29.29,0,44.08-13.6,44.08-36.08C1648.66,56.49,1633.87,43.18,1604.58,43.18Z"/><path class="cls-1" d="M1733.84,107.66c0-61.52,47.91-107.07,113.28-107.07,65.07,0,113.28,45.25,113.28,107.07s-48.21,107.07-113.28,107.07C1781.75,214.73,1733.84,169.18,1733.84,107.66Zm178.06,0c0-39.34-27.81-66.25-64.78-66.25s-64.77,26.91-64.77,66.25,27.8,66.26,64.77,66.26S1911.9,147,1911.9,107.66Z"/></g></g></svg>