<svg xmlns="http://www.w3.org/2000/svg" viewBox="0 0 2474.53 587.4"><defs><style>.cls-1,.cls-2{fill:none;}.cls-1{stroke:#fff;stroke-miterlimit:10;stroke-width:2.56px;}</style></defs><g id="Layer_2" data-name="Layer 2"><g id="Layer_1-2" data-name="Layer 1"><path class="cls-1" d="M172.84,450.44l-49.92-72.11H67.82v72.11H7.91V191.58H120c69.15,0,112.42,35.87,112.42,93.93,0,38.83-19.6,67.3-53.25,81.73l58.06,83.2Zm-56.21-210H67.82v90.23h48.81c36.61,0,55.1-17,55.1-45.12C171.73,257,153.24,240.4,116.63,240.4Z"/><path class="cls-1" d="M465,395H344.79l-22.92,55.47H260.48L375.86,191.58H435L550.77,450.44H487.91Zm-18.86-45.48-41.05-99.11L364,349.49Z"/><path class="cls-1" d="M830,191.58V450.44H780.78l-129-157.16V450.44H592.56V191.58h49.55L770.8,348.75V191.58Z"/><path class="cls-1" d="M889.88,321c0-78,59.9-133.86,140.52-133.86,44.75,0,82.09,16.27,106.5,45.85l-38.46,35.5c-17.38-20-39.2-30.32-65.08-30.32-48.45,0-82.84,34-82.84,82.83s34.39,82.84,82.84,82.84c25.88,0,47.7-10.36,65.08-30.7l38.46,35.5c-24.41,30-61.75,46.23-106.87,46.23C949.78,454.88,889.88,399,889.88,321Z"/><path class="cls-1" d="M1429.41,191.58V450.44H1369.5V344.31H1251.91V450.44H1192V191.58h59.91V293.65H1369.5V191.58Z"/><path class="cls-1" d="M1706,402.37v48.07H1505.59V191.58h195.62v48.08H1565.13v56.21h120.18v46.59H1565.13v59.91Z"/><path class="cls-1" d="M1768.51,191.58h59.91V450.44h-59.91Z"/><path class="cls-1" d="M2069.52,450.44l-49.92-72.11h-55.1v72.11h-59.91V191.58h112.05c69.15,0,112.42,35.87,112.42,93.93,0,38.83-19.6,67.3-53.25,81.73l58.06,83.2Zm-56.21-210H1964.5v90.23h48.81c36.61,0,55.1-17,55.1-45.12C2068.41,257,2049.92,240.4,2013.31,240.4Z"/><path class="cls-1" d="M2174.91,321c0-76.92,59.91-133.86,141.64-133.86,81.35,0,141.63,56.57,141.63,133.86s-60.28,133.87-141.63,133.87C2234.82,454.88,2174.91,397.93,2174.91,321Zm222.62,0c0-49.18-34.76-82.83-81-82.83s-81,33.65-81,82.83,34.76,82.84,81,82.84S2397.53,370.19,2397.53,321Z"/><rect class="cls-2" width="2474.53" height="587.4"/></g></g></svg>