<svg xmlns="http://www.w3.org/2000/svg" viewBox="0 0 1962.91 371.07"><defs><style>.cls-1{fill:none;stroke:#fff;stroke-miterlimit:10;stroke-width:2.03px;}</style></defs><g id="Layer_2" data-name="Layer 2"><g id="Layer_1-2" data-name="Layer 1"><path class="cls-1" d="M83.59,73.4v94.3H248.74V234H83.59v130H1V7.13H270.66V73.4Z"/><path class="cls-1" d="M344.06,206.94V7.13h82.57V203.89c0,67.79,29.56,95.82,79.52,95.82,50.46,0,79.51-28,79.51-95.82V7.13h81.56V206.94c0,105-60.15,163.11-161.58,163.11S344.06,312,344.06,206.94Z"/><path class="cls-1" d="M741.13,328.77l28-62.19c30.08,21.92,74.93,37.21,117.75,37.21,48.93,0,68.81-16.31,68.81-38.23,0-66.77-207.46-20.9-207.46-153.42C748.26,51.48,797.2,1,898.63,1c44.86,0,90.73,10.7,123.86,31.6L997,95.32c-33.13-18.86-67.29-28-98.89-28-48.93,0-67.79,18.35-67.79,40.78,0,65.75,207.45,20.39,207.45,151.39,0,59.63-49.44,110.6-151.38,110.6C829.82,370.05,772.73,353.23,741.13,328.77Z"/><path class="cls-1" d="M1114.75,7.13h82.57V363.94h-82.57Z"/><path class="cls-1" d="M1279.89,185.54C1279.89,78,1362.47,1,1473.58,1c61.68,0,113.16,22.42,146.8,63.2l-53,48.94c-23.95-27.53-54-41.8-89.71-41.8-66.77,0-114.18,46.89-114.18,114.18s47.41,114.17,114.18,114.17c35.68,0,65.76-14.27,89.71-42.3l53,48.93c-33.64,41.29-85.12,63.71-147.31,63.71C1362.47,370.05,1279.89,293.09,1279.89,185.54Z"/><path class="cls-1" d="M1665.24,328.77l28-62.19c30.07,21.92,74.93,37.21,117.75,37.21,48.93,0,68.81-16.31,68.81-38.23,0-66.77-207.46-20.9-207.46-153.42C1672.37,51.48,1721.31,1,1822.74,1c44.85,0,90.73,10.7,123.86,31.6l-25.49,62.7c-33.13-18.86-67.28-28-98.88-28-48.93,0-67.79,18.35-67.79,40.78,0,65.75,207.45,20.39,207.45,151.39,0,59.63-49.44,110.6-151.38,110.6C1753.93,370.05,1696.84,353.23,1665.24,328.77Z"/></g></g></svg>