<svg xmlns="http://www.w3.org/2000/svg" viewBox="0 0 2474.53 587.4"><defs><style>.cls-1,.cls-2{fill:none;}.cls-2{stroke:#fff;stroke-miterlimit:10;stroke-width:2.56px;}</style></defs><g id="Layer_2" data-name="Layer 2"><g id="Layer_1-2" data-name="Layer 1"><rect class="cls-1" width="2474.53" height="587.4"/><path class="cls-2" d="M109.13,164.43V282.9H316.61v83.25H109.13V529.44H5.39V81.19H344.15v83.24Z"/><path class="cls-2" d="M436.35,332.21v-251H540.09V328.37c0,85.17,37.14,120.39,99.9,120.39,63.39,0,99.9-35.22,99.9-120.39V81.19H842.34v251c0,131.92-75.56,204.92-203,204.92S436.35,464.13,436.35,332.21Z"/><path class="cls-2" d="M935.19,485.26l35.22-78.13c37.78,27.54,94.13,46.75,147.92,46.75,61.48,0,86.45-20.49,86.45-48,0-83.89-260.62-26.25-260.62-192.75,0-76.2,61.47-139.6,188.9-139.6,56.36,0,114,13.45,155.61,39.7l-32,78.77c-41.62-23.69-84.52-35.22-124.23-35.22-61.47,0-85.17,23.05-85.17,51.23,0,82.61,260.63,25.61,260.63,190.19,0,74.92-62.11,139-190.19,139C1046.61,537.13,974.89,516,935.19,485.26Z"/><path class="cls-2" d="M1404.57,81.19h103.74V529.44H1404.57Z"/><path class="cls-2" d="M1612,305.31C1612,170.2,1715.77,73.5,1855.37,73.5c77.49,0,142.17,28.18,184.43,79.41l-66.6,61.47c-30.1-34.58-67.88-52.51-112.7-52.51-83.89,0-143.44,58.92-143.44,143.44s59.55,143.45,143.44,143.45c44.82,0,82.6-17.93,112.7-53.15l66.6,61.47c-42.26,51.87-106.94,80.05-185.07,80.05C1715.77,537.13,1612,440.43,1612,305.31Z"/><path class="cls-2" d="M2096.14,485.26l35.22-78.13c37.78,27.54,94.14,46.75,147.93,46.75,61.47,0,86.45-20.49,86.45-48,0-83.89-260.63-26.25-260.63-192.75,0-76.2,61.47-139.6,188.91-139.6,56.35,0,114,13.45,155.6,39.7l-32,78.77c-41.63-23.69-84.53-35.22-124.23-35.22-61.48,0-85.17,23.05-85.17,51.23,0,82.61,260.62,25.61,260.62,190.19,0,74.92-62.11,139-190.18,139C2207.57,537.13,2135.84,516,2096.14,485.26Z"/></g></g></svg>