<svg xmlns="http://www.w3.org/2000/svg" viewBox="0 0 890.44 168.33"><defs><style>.cls-1{fill:none;stroke:#fff;stroke-miterlimit:10;stroke-width:0.92px;}</style></defs><g id="Layer_2" data-name="Layer 2"><g id="Layer_1-2" data-name="Layer 1"><path class="cls-1" d="M37.92,33.3V76.07h74.92v30.06H37.92v59H.46V3.24H122.78V33.3Z"/><path class="cls-1" d="M156.07,93.88V3.24h37.46V92.49c0,30.76,13.42,43.47,36.08,43.47,22.89,0,36.07-12.71,36.07-43.47V3.24h37V93.88c0,47.63-27.29,74-73.3,74S156.07,141.51,156.07,93.88Z"/><path class="cls-1" d="M336.2,149.14l12.72-28.21c13.64,9.95,34,16.88,53.41,16.88,22.2,0,31.22-7.4,31.22-17.34,0-30.29-94.11-9.48-94.11-69.6,0-27.52,22.19-50.41,68.21-50.41,20.35,0,41.16,4.86,56.19,14.34L452.28,43.24c-15-8.56-30.53-12.72-44.86-12.72-22.2,0-30.76,8.33-30.76,18.5,0,29.83,94.12,9.25,94.12,68.68,0,27.05-22.43,50.17-68.68,50.17C376.43,167.87,350.54,160.24,336.2,149.14Z"/><path class="cls-1" d="M505.68,3.24h37.46V165.1H505.68Z"/><path class="cls-1" d="M580.6,84.17C580.6,35.38,618.06.46,668.47.46c28,0,51.33,10.18,66.59,28.67l-24,22.2c-10.86-12.48-24.51-19-40.69-19-30.29,0-51.8,21.27-51.8,51.8S640,136,670.32,136c16.18,0,29.83-6.47,40.69-19.19l24,22.2c-15.26,18.73-38.61,28.9-66.82,28.9C618.06,167.87,580.6,133,580.6,84.17Z"/><path class="cls-1" d="M755.4,149.14l12.72-28.21c13.64,9.95,34,16.88,53.42,16.88,22.19,0,31.21-7.4,31.21-17.34,0-30.29-94.11-9.48-94.11-69.6,0-27.52,22.2-50.41,68.21-50.41C847.2.46,868,5.32,883,14.8L871.48,43.24c-15-8.56-30.52-12.72-44.86-12.72-22.2,0-30.75,8.33-30.75,18.5,0,29.83,94.11,9.25,94.11,68.68,0,27.05-22.43,50.17-68.67,50.17C795.64,167.87,769.74,160.24,755.4,149.14Z"/></g></g></svg>