<svg xmlns="http://www.w3.org/2000/svg" viewBox="0 0 556.75 177.12"><defs><style>.cls-1{fill:none;stroke:#fff;stroke-miterlimit:10;stroke-width:0.92px;}</style></defs><g id="Layer_2" data-name="Layer 2"><g id="Layer_1-2" data-name="Layer 1"><path class="cls-1" d="M.46,12H37.92V143.36h81.16v30.53H.46Z"/><path class="cls-1" d="M171.8,22.66c0,6-.92,10.41-6,23.12l-13.41,33.3H129.49l9.94-36.53c-7.4-3.24-12.26-10.18-12.26-19.89,0-13.41,9.71-22.2,22.43-22.2C162.55.46,171.8,9.48,171.8,22.66Z"/><path class="cls-1" d="M197.93,93c0-48.09,37.46-83.7,88.56-83.7,50.87,0,88.56,35.38,88.56,83.7s-37.69,83.71-88.56,83.71C235.39,176.66,197.93,141.05,197.93,93Zm139.2,0c0-30.75-21.74-51.79-50.64-51.79S235.85,62.2,235.85,93s21.73,51.8,50.64,51.8S337.13,123.71,337.13,93Z"/><path class="cls-1" d="M515.63,173.89l-31.21-45.1H450v45.1H412.5V12h70.07c43.24,0,70.29,22.43,70.29,58.74,0,24.28-12.25,42.08-33.3,51.1l36.31,52ZM480.49,42.55H450V99h30.53c22.89,0,34.45-10.64,34.45-28.21C514.94,53,503.38,42.55,480.49,42.55Z"/></g></g></svg>