<svg xmlns="http://www.w3.org/2000/svg" viewBox="0 0 2474.53 587.4"><defs><style>.cls-1,.cls-2{fill:none;}.cls-1{stroke:#fff;stroke-miterlimit:10;stroke-width:2.56px;}</style></defs><g id="Layer_2" data-name="Layer 2"><g id="Layer_1-2" data-name="Layer 1"><path class="cls-1" d="M471.72,81.19H575.46V444.91H800.23v84.53H471.72Z"/><path class="cls-1" d="M946.23,110.64c0,16.65-2.56,28.82-16.65,64l-37.14,92.21H829l27.54-101.18c-20.49-9-33.94-28.17-33.94-55.07,0-37.14,26.89-61.47,62.11-61.47C920.61,49.17,946.23,74.14,946.23,110.64Z"/><path class="cls-1" d="M1018.58,305.31c0-133.19,103.74-231.81,245.26-231.81,140.88,0,245.26,98,245.26,231.81s-104.38,231.82-245.26,231.82C1122.32,537.13,1018.58,438.51,1018.58,305.31Zm385.5,0c0-85.16-60.19-143.44-140.24-143.44S1123.6,220.15,1123.6,305.31s60.2,143.45,140.24,143.45S1404.08,390.48,1404.08,305.31Z"/><path class="cls-1" d="M1898.44,529.44,1812,404.57h-95.41V529.44H1612.84V81.19h194c119.75,0,194.67,62.11,194.67,162.65,0,67.24-33.94,116.55-92.21,141.52l100.53,144.08ZM1801.1,165.71h-84.52V322h84.52c63.4,0,95.42-29.45,95.42-78.12C1896.52,194.53,1864.5,165.71,1801.1,165.71Z"/><rect class="cls-2" width="2474.53" height="587.4"/></g></g></svg>