<svg xmlns="http://www.w3.org/2000/svg" viewBox="0 0 822.75 383.21"><defs><style>.cls-1{fill:#fff;}.cls-2{fill:none;stroke:#fff;stroke-miterlimit:10;}</style></defs><g id="Layer_2" data-name="Layer 2"><g id="Layer_1-2" data-name="Layer 1"><path class="cls-1" d="M0,148l17-38.57c14.8,8.75,34.53,14.35,51.8,14.35,15,0,20.4-3.14,20.4-8.52,0-19.73-86.77-3.81-86.77-62.33C2.47,23.77,26.91,0,75.56,0c21.08,0,42.83,4.48,59.2,13.68L118.84,52c-15.47-7.85-30-11.66-43.72-11.66-15.48,0-20.41,4.49-20.41,9.87,0,18.83,86.78,3.14,86.78,61,0,28.7-24.44,52.91-73.1,52.91C42.15,164.13,15.7,157.63,0,148Z"/><path class="cls-1" d="M273.11,133.19H213.47l-10.54,27.36H149.11l68.62-157h52l68.61,157H283.65ZM258.54,95.07,243.29,55.61,228,95.07Z"/><path class="cls-1" d="M439.05,103.59v57H386.13V102.92L326.93,3.59h55.84l32.06,54.26L447.12,3.59h51.12Z"/><path class="cls-2" d="M164.58,222.17v157H111.67V321.27H62.78v57.85H9.87v-157H62.78v55.6h48.89v-55.6Z"/><path class="cls-2" d="M329.62,339.21v39.91H199.12v-157H326.7v39.91H251.14v18.38h66.37v38.12H251.14v20.63Z"/><path class="cls-2" d="M359,222.17h52.92V338.09h70.86v41H359Z"/><path class="cls-2" d="M506.31,222.17h52.92V338.09h70.85v41H506.31Z"/><path class="cls-2" d="M645.11,300.64c0-47.53,37.45-82.06,88.57-82.06s88.57,34.53,88.57,82.06-37.45,82.07-88.57,82.07S645.11,348.18,645.11,300.64Zm123.77,0c0-24.44-15.69-39.23-35.2-39.23s-35.2,14.79-35.2,39.23,15.69,39.24,35.2,39.24S768.88,325.09,768.88,300.64Z"/></g></g></svg>